<svg xmlns="http://www.w3.org/2000/svg" width="2400" height="1800" viewBox="0 0 1200 900" role="img" aria-labelledby="title desc">
<title>AvanaHR Smart Attendance SVG Asset</title>
<desc>Raw scalable SVG onboarding illustration asset for AvanaHR Flutter HRIS app.</desc>

<defs>
  <linearGradient id="blue" x1="0%" y1="0%" x2="100%" y2="100%">
    <stop offset="0%" stop-color="#2F6BFF"/>
    <stop offset="100%" stop-color="#0F4AD8"/>
  </linearGradient>
  <linearGradient id="blueSoft" x1="0%" y1="0%" x2="100%" y2="100%">
    <stop offset="0%" stop-color="#EAF2FF"/>
    <stop offset="100%" stop-color="#F8FBFF"/>
  </linearGradient>
  <linearGradient id="navy" x1="0%" y1="0%" x2="100%" y2="100%">
    <stop offset="0%" stop-color="#0C2D67"/>
    <stop offset="100%" stop-color="#061A3F"/>
  </linearGradient>
  <filter id="shadow" x="-30%" y="-30%" width="160%" height="160%">
    <feDropShadow dx="0" dy="20" stdDeviation="20" flood-color="#103B83" flood-opacity="0.14"/>
  </filter>
  <filter id="softShadow" x="-30%" y="-30%" width="160%" height="160%">
    <feDropShadow dx="0" dy="10" stdDeviation="12" flood-color="#1E4EC9" flood-opacity="0.12"/>
  </filter>
  <style>
    .dark{fill:#071B45}.muted{fill:#6B7894}.line{stroke:#D8E5FF;stroke-width:3;fill:none;stroke-linecap:round;stroke-linejoin:round}
    .blueStroke{stroke:#2363F6;stroke-width:5;fill:none;stroke-linecap:round;stroke-linejoin:round}
    .card{fill:#FFFFFF;stroke:#DDE9FF;stroke-width:2;filter:url(#softShadow)}
    .micro{font-family:Arial, Helvetica, sans-serif;font-size:20px;fill:#5E6C89}.label{font-family:Arial, Helvetica, sans-serif;font-size:26px;font-weight:700;fill:#071B45}
    .small{font-family:Arial, Helvetica, sans-serif;font-size:18px;fill:#70809B}.whiteText{font-family:Arial, Helvetica, sans-serif;fill:#FFFFFF}
  </style>
</defs>

<rect width="1200" height="900" fill="none"/>
<ellipse cx="600" cy="510" rx="500" ry="320" fill="url(#blueSoft)" opacity="0.8"/>
<path d="M85 790 C250 700 385 820 550 735 C760 625 875 825 1120 710 L1120 900 L85 900 Z" fill="#E9F2FF" opacity=".7"/>
<path d="M120 720 C270 680 382 768 525 720 C731 652 850 760 1085 675" class="line" opacity=".5"/>

<g id="brand" transform="translate(430 42)">
  <g transform="translate(0 0) scale(.9)">
    <path d="M27 96 L78 5 Q84 -6 94 5 L156 140 L119 140 L100 96 Q96 87 87 87 H77 Q67 87 63 97 L43 140 H8 Z" fill="url(#blue)"/>
    <rect x="170" y="0" width="42" height="140" rx="10" fill="url(#blue)"/>
    <circle cx="109" cy="82" r="22" fill="#FFFFFF"/>
    <circle cx="109" cy="82" r="15" fill="#6EA0FF"/>
    <path d="M42 109 C88 83 161 78 230 121" stroke="#79A8FF" stroke-width="17" fill="none" stroke-linecap="round" opacity=".9"/>
  </g>
  <text x="215" y="86" font-family="Arial, Helvetica, sans-serif" font-size="74" font-weight="500" fill="#071B45">Avana</text>
  <text x="435" y="86" font-family="Arial, Helvetica, sans-serif" font-size="74" font-weight="500" fill="#2F6BFF">HR</text>
  <text x="220" y="122" font-family="Arial, Helvetica, sans-serif" font-size="22" fill="#40506D">Advancing People, Empowering Growth</text>
</g>

<g opacity=".32">
  <rect x="110" y="425" width="72" height="255" rx="8" fill="#AFCBFF"/><rect x="200" y="365" width="82" height="315" rx="8" fill="#CFE0FF"/><rect x="890" y="390" width="80" height="290" rx="8" fill="#BED5FF"/>
  <path d="M145 390 v-35 M245 330 v-60 M930 345 v-80" class="line"/>
</g>
<g id="clock" transform="translate(125 240)" filter="url(#softShadow)">
  <circle cx="75" cy="75" r="68" fill="#FFFFFF" stroke="#DDE9FF" stroke-width="4"/>
  <circle cx="75" cy="75" r="55" fill="#F8FBFF" stroke="#2363F6" stroke-width="7"/>
  <line x1="75" y1="75" x2="75" y2="40" stroke="#071B45" stroke-width="6" stroke-linecap="round"/>
  <line x1="75" y1="75" x2="105" y2="98" stroke="#071B45" stroke-width="6" stroke-linecap="round"/>
  <circle cx="75" cy="75" r="7" fill="#071B45"/>
</g>
<g id="calendar" transform="translate(880 260)" filter="url(#softShadow)">
  <rect x="0" y="0" width="180" height="150" rx="18" fill="#FFFFFF" stroke="#DDE9FF" stroke-width="2"/>
  <rect x="0" y="0" width="180" height="42" rx="18" fill="url(#blue)"/>
  <rect x="22" y="62" width="24" height="24" rx="5" fill="#E9F2FF"/><rect x="58" y="62" width="24" height="24" rx="5" fill="#E9F2FF"/><rect x="94" y="62" width="24" height="24" rx="5" fill="#2363F6"/>
  <path d="M100 73 l8 8 l18-22" stroke="#FFFFFF" stroke-width="5" fill="none" stroke-linecap="round" stroke-linejoin="round"/>
  <rect x="130" y="62" width="24" height="24" rx="5" fill="#E9F2FF"/><rect x="22" y="98" width="24" height="24" rx="5" fill="#E9F2FF"/><rect x="58" y="98" width="24" height="24" rx="5" fill="#E9F2FF"/><rect x="94" y="98" width="24" height="24" rx="5" fill="#E9F2FF"/><rect x="130" y="98" width="24" height="24" rx="5" fill="#E9F2FF"/>
  <circle cx="44" cy="0" r="8" fill="#AFCBFF"/><circle cx="136" cy="0" r="8" fill="#AFCBFF"/>
</g>

<g id="phone" transform="translate(430 190)" filter="url(#shadow)">
  <rect x="0" y="0" width="340" height="560" rx="52" fill="#071B45"/>
  <rect x="16" y="16" width="308" height="528" rx="40" fill="#FFFFFF"/>
  <path d="M16 56 Q16 16 56 16 H284 Q324 16 324 56 V156 H16 Z" fill="url(#blue)"/>
  <rect x="130" y="25" width="82" height="18" rx="9" fill="#071B45" opacity=".65"/>
  <circle cx="225" cy="34" r="5" fill="#17356E"/>
  <text x="44" y="54" class="whiteText" font-size="18" font-weight="700">9:41</text>

  <text x="44" y="105" class="whiteText" font-size="25">Good morning,</text>
  <text x="44" y="143" class="whiteText" font-size="36" font-weight="700">Alex 👋</text>
  <circle cx="282" cy="96" r="13" fill="#FFFFFF" opacity=".95"/><circle cx="292" cy="86" r="6" fill="#FF6B4A"/>
  <rect x="38" y="185" width="264" height="245" rx="24" fill="#FFFFFF" filter="url(#softShadow)"/>
  <text x="65" y="222" class="label">Check-in</text>
  <text x="65" y="263" font-family="Arial" font-size="42" font-weight="700" fill="#071B45">09:15 AM</text>
  <text x="65" y="294" class="small">Today, May 20</text>
  <circle cx="250" cy="247" r="45" fill="url(#blue)"/>
  <path d="M230 249 l18 18 l38-43" stroke="#FFFFFF" stroke-width="10" fill="none" stroke-linecap="round" stroke-linejoin="round"/>
  <line x1="65" y1="326" x2="276" y2="326" stroke="#E6EEFF" stroke-width="3"/>
  <text x="65" y="363" class="micro">Work Hours</text><text x="65" y="398" class="label" font-size="32">07h 45m</text>
  <circle cx="255" cy="383" r="23" fill="#EEF5FF"/><path d="M255 369 v16 l12 8" class="blueStroke" stroke-width="4"/>
  <text x="65" y="454" class="micro">This Week</text>
  <g transform="translate(64 472)"><circle cx="0" cy="30" r="15" fill="#2363F6"/><path d="M-6 30 l5 6 l10-13" stroke="#FFFFFF" stroke-width="4" fill="none" stroke-linecap="round" stroke-linejoin="round" opacity="1"/><circle cx="36" cy="30" r="15" fill="#2363F6"/><path d="M30 30 l5 6 l10-13" stroke="#FFFFFF" stroke-width="4" fill="none" stroke-linecap="round" stroke-linejoin="round" opacity="1"/><circle cx="72" cy="30" r="15" fill="#2363F6"/><path d="M66 30 l5 6 l10-13" stroke="#FFFFFF" stroke-width="4" fill="none" stroke-linecap="round" stroke-linejoin="round" opacity="1"/><circle cx="108" cy="30" r="15" fill="#2363F6"/><path d="M102 30 l5 6 l10-13" stroke="#FFFFFF" stroke-width="4" fill="none" stroke-linecap="round" stroke-linejoin="round" opacity="1"/><circle cx="144" cy="30" r="15" fill="#2363F6"/><path d="M138 30 l5 6 l10-13" stroke="#FFFFFF" stroke-width="4" fill="none" stroke-linecap="round" stroke-linejoin="round" opacity="1"/><circle cx="180" cy="30" r="15" fill="#E7EFFD"/><path d="M174 30 l5 6 l10-13" stroke="#FFFFFF" stroke-width="4" fill="none" stroke-linecap="round" stroke-linejoin="round" opacity="0.7"/><circle cx="216" cy="30" r="15" fill="#E7EFFD"/><path d="M210 30 l5 6 l10-13" stroke="#FFFFFF" stroke-width="4" fill="none" stroke-linecap="round" stroke-linejoin="round" opacity="0.7"/></g>
</g>

<g id="male" transform="translate(185 505)">
  <ellipse cx="83" cy="252" rx="70" ry="18" fill="#BED5FF" opacity=".45"/>
  <circle cx="75" cy="42" r="30" fill="#F6B68B"/><path d="M47 40 C56 0 96 8 105 33 C87 24 73 29 61 48 Z" fill="#071B45"/>
  <rect x="42" y="75" width="75" height="130" rx="22" fill="#2363F6"/><path d="M45 100 C28 132 24 170 36 218" class="blueStroke" stroke="#2363F6" stroke-width="20"/>
  <path d="M110 100 C140 138 150 170 143 214" class="blueStroke" stroke="#2363F6" stroke-width="20"/>
  <rect x="61" y="75" width="48" height="132" fill="#FFFFFF" opacity=".98"/>
  <rect x="50" y="200" width="32" height="72" rx="13" fill="#071B45"/><rect x="90" y="200" width="32" height="72" rx="13" fill="#071B45"/>
  <rect x="125" y="118" width="37" height="61" rx="8" fill="#0C2D67" transform="rotate(10 143 149)"/>
  <circle cx="148" cy="162" r="4" fill="#8DB2FF"/>
</g>
<g id="femaleDesk" transform="translate(820 510)">
  <ellipse cx="88" cy="252" rx="92" ry="18" fill="#BED5FF" opacity=".45"/>
  <rect x="20" y="128" width="180" height="14" rx="7" fill="#D8E5FF"/><rect x="42" y="142" width="12" height="105" fill="#D8E5FF"/><rect x="165" y="142" width="12" height="105" fill="#D8E5FF"/>
  <circle cx="82" cy="70" r="30" fill="#F2B184"/><path d="M52 74 C48 37 72 21 100 39 C114 53 113 86 104 105 C91 88 70 92 52 74 Z" fill="#071B45"/>
  <path d="M50 105 C89 80 124 97 132 151 L120 210 H50 Z" fill="#2363F6"/>
  <rect x="74" y="190" width="28" height="78" rx="12" fill="#071B45"/><rect x="110" y="190" width="28" height="78" rx="12" fill="#071B45"/>
  <rect x="72" y="108" width="130" height="78" rx="8" fill="#0C2D67" transform="skewX(-8)"/><circle cx="138" cy="146" r="8" fill="#FFFFFF" opacity=".8"/>
</g>
<g id="standingWoman" transform="translate(958 450)">
  <ellipse cx="55" cy="310" rx="58" ry="16" fill="#BED5FF" opacity=".45"/>
  <circle cx="62" cy="48" r="31" fill="#9C633F"/><path d="M30 44 C30 10 55 -2 82 14 C105 28 96 68 82 88 C74 60 50 60 30 44 Z" fill="#071B45"/>
  <rect x="24" y="86" width="78" height="150" rx="24" fill="#AFCBFF"/><rect x="45" y="91" width="44" height="145" fill="#FFFFFF"/>
  <rect x="34" y="226" width="25" height="84" rx="10" fill="#071B45"/><rect x="71" y="226" width="25" height="84" rx="10" fill="#071B45"/>
  <rect x="35" y="119" width="65" height="55" rx="8" fill="#406AC2" transform="rotate(-6 67 146)"/>
  <circle cx="66" cy="147" r="5" fill="#B8CBFF"/>
</g>
<g id="plant" transform="translate(65 650)"><rect x="34" y="95" width="80" height="82" rx="16" fill="#E3EEFF"/><path d="M75 104 C65 45 35 30 18 8 M76 104 C88 40 128 32 155 5 M75 105 C75 45 76 30 76 0" class="blueStroke" opacity=".65"/><ellipse cx="32" cy="34" rx="20" ry="38" transform="rotate(-36 32 34)" fill="#7EA8FF"/><ellipse cx="128" cy="30" rx="20" ry="38" transform="rotate(36 128 30)" fill="#7EA8FF"/><ellipse cx="76" cy="25" rx="18" ry="34" fill="#7EA8FF"/></g>
</svg>
