<svg xmlns="http://www.w3.org/2000/svg" width="2400" height="1800" viewBox="0 0 1200 900" role="img" aria-labelledby="title desc">
<title>AvanaHR People Growth Insights SVG Asset</title>
<desc>Raw scalable SVG onboarding illustration asset for AvanaHR Flutter HRIS app.</desc>

<defs>
  <linearGradient id="blue" x1="0%" y1="0%" x2="100%" y2="100%">
    <stop offset="0%" stop-color="#2F6BFF"/>
    <stop offset="100%" stop-color="#0F4AD8"/>
  </linearGradient>
  <linearGradient id="blueSoft" x1="0%" y1="0%" x2="100%" y2="100%">
    <stop offset="0%" stop-color="#EAF2FF"/>
    <stop offset="100%" stop-color="#F8FBFF"/>
  </linearGradient>
  <linearGradient id="navy" x1="0%" y1="0%" x2="100%" y2="100%">
    <stop offset="0%" stop-color="#0C2D67"/>
    <stop offset="100%" stop-color="#061A3F"/>
  </linearGradient>
  <filter id="shadow" x="-30%" y="-30%" width="160%" height="160%">
    <feDropShadow dx="0" dy="20" stdDeviation="20" flood-color="#103B83" flood-opacity="0.14"/>
  </filter>
  <filter id="softShadow" x="-30%" y="-30%" width="160%" height="160%">
    <feDropShadow dx="0" dy="10" stdDeviation="12" flood-color="#1E4EC9" flood-opacity="0.12"/>
  </filter>
  <style>
    .dark{fill:#071B45}.muted{fill:#6B7894}.line{stroke:#D8E5FF;stroke-width:3;fill:none;stroke-linecap:round;stroke-linejoin:round}
    .blueStroke{stroke:#2363F6;stroke-width:5;fill:none;stroke-linecap:round;stroke-linejoin:round}
    .card{fill:#FFFFFF;stroke:#DDE9FF;stroke-width:2;filter:url(#softShadow)}
    .micro{font-family:Arial, Helvetica, sans-serif;font-size:20px;fill:#5E6C89}.label{font-family:Arial, Helvetica, sans-serif;font-size:26px;font-weight:700;fill:#071B45}
    .small{font-family:Arial, Helvetica, sans-serif;font-size:18px;fill:#70809B}.whiteText{font-family:Arial, Helvetica, sans-serif;fill:#FFFFFF}
  </style>
</defs>

<rect width="1200" height="900" fill="none"/>
<ellipse cx="600" cy="510" rx="500" ry="320" fill="url(#blueSoft)" opacity="0.8"/>
<path d="M85 790 C250 700 385 820 550 735 C760 625 875 825 1120 710 L1120 900 L85 900 Z" fill="#E9F2FF" opacity=".7"/>
<path d="M120 720 C270 680 382 768 525 720 C731 652 850 760 1085 675" class="line" opacity=".5"/>

<g id="brand" transform="translate(430 42)">
  <g transform="translate(0 0) scale(.9)">
    <path d="M27 96 L78 5 Q84 -6 94 5 L156 140 L119 140 L100 96 Q96 87 87 87 H77 Q67 87 63 97 L43 140 H8 Z" fill="url(#blue)"/>
    <rect x="170" y="0" width="42" height="140" rx="10" fill="url(#blue)"/>
    <circle cx="109" cy="82" r="22" fill="#FFFFFF"/>
    <circle cx="109" cy="82" r="15" fill="#6EA0FF"/>
    <path d="M42 109 C88 83 161 78 230 121" stroke="#79A8FF" stroke-width="17" fill="none" stroke-linecap="round" opacity=".9"/>
  </g>
  <text x="215" y="86" font-family="Arial, Helvetica, sans-serif" font-size="74" font-weight="500" fill="#071B45">Avana</text>
  <text x="435" y="86" font-family="Arial, Helvetica, sans-serif" font-size="74" font-weight="500" fill="#2F6BFF">HR</text>
  <text x="220" y="122" font-family="Arial, Helvetica, sans-serif" font-size="22" fill="#40506D">Advancing People, Empowering Growth</text>
</g>

<g opacity=".26"><rect x="130" y="405" width="80" height="280" rx="8" fill="#CFE0FF"/><rect x="230" y="340" width="90" height="345" rx="8" fill="#BED5FF"/><rect x="880" y="380" width="85" height="305" rx="8" fill="#BED5FF"/><rect x="990" y="335" width="78" height="350" rx="8" fill="#CFE0FF"/></g>
<path d="M800 485 L895 398 L955 445 L1086 300" stroke="#6EA0FF" stroke-width="22" fill="none" stroke-linecap="round" stroke-linejoin="round" opacity=".7"/>
<path d="M1086 300 l-5 78 l-70 -34 Z" fill="#6EA0FF" opacity=".7"/>
<g transform="translate(85 260)" filter="url(#softShadow)"><rect width="230" height="170" rx="20" class="card"/><text x="28" y="45" class="label">Skills Growth</text><circle cx="68" cy="94" r="38" fill="none" stroke="#E7EFFD" stroke-width="12"/><path d="M68 56 A38 38 0 1 1 42 121" stroke="#2363F6" stroke-width="12" fill="none" stroke-linecap="round"/><text x="47" y="102" class="label">75%</text><text x="125" y="88" font-family="Arial" font-weight="700" font-size="25" fill="#10A66B">▲15%</text><rect x="138" y="115" width="12" height="27" rx="3" fill="#D8E5FF"/><rect x="163" y="101" width="12" height="41" rx="3" fill="#AFCBFF"/><rect x="188" y="76" width="12" height="66" rx="3" fill="#2363F6"/></g>
<g transform="translate(850 250)" filter="url(#softShadow)"><rect width="250" height="130" rx="20" class="card"/><text x="28" y="42" class="label">Team Engagement</text><circle cx="62" cy="84" r="30" fill="none" stroke="#E7EFFD" stroke-width="9"/><path d="M62 54 A30 30 0 1 1 40 105" stroke="#2363F6" stroke-width="9" fill="none"/><text x="48" y="91" class="label" font-size="20">87%</text><text x="112" y="91" class="label">High</text><path d="M160 91 C175 76 190 103 208 82 C224 64 234 78 240 66" class="blueStroke" stroke-width="4"/></g>
<g transform="translate(900 425)" filter="url(#softShadow)"><rect width="190" height="160" rx="20" class="card"/><circle cx="95" cy="55" r="33" fill="#D8E5FF"/><circle cx="95" cy="49" r="20" fill="#F2B184"/><path d="M76 50 C76 28 100 19 113 38 C105 34 92 39 82 54 Z" fill="#071B45"/><text x="44" y="105" class="label">Diana Rose</text><text x="51" y="130" class="small">HR Manager</text><text x="50" y="154" font-family="Arial" font-size="24" fill="#2363F6">★★★★★</text></g>

<g id="phone" transform="translate(430 190)" filter="url(#shadow)">
  <rect x="0" y="0" width="340" height="560" rx="52" fill="#071B45"/>
  <rect x="16" y="16" width="308" height="528" rx="40" fill="#FFFFFF"/>
  <path d="M16 56 Q16 16 56 16 H284 Q324 16 324 56 V156 H16 Z" fill="url(#blue)"/>
  <rect x="130" y="25" width="82" height="18" rx="9" fill="#071B45" opacity=".65"/>
  <circle cx="225" cy="34" r="5" fill="#17356E"/>
  <text x="44" y="54" class="whiteText" font-size="18" font-weight="700">9:41</text>

  <text x="38" y="98" class="whiteText" font-size="27" font-weight="700">Hello, Alex 👋</text><text x="38" y="128" class="whiteText" font-size="18" opacity=".86">Here's your team overview</text>
  <rect x="38" y="160" width="264" height="115" rx="20" fill="#FFFFFF" filter="url(#softShadow)"/><text x="60" y="195" class="label">Team Overview</text>
  <text x="60" y="235" class="label">128</text><text x="60" y="257" class="small">Employees</text><text x="178" y="235" class="label">16</text><text x="178" y="257" class="small">On Leave</text>
  <text x="60" y="300" class="label">12</text><text x="60" y="322" class="small">New</text><text x="178" y="300" class="label">08</text><text x="178" y="322" class="small">Open Roles</text>
  <rect x="38" y="335" width="264" height="125" rx="20" fill="#FFFFFF" filter="url(#softShadow)"/><text x="60" y="370" class="label">Performance</text><circle cx="97" cy="414" r="36" fill="none" stroke="#E7EFFD" stroke-width="14"/><path d="M97 378 A36 36 0 1 1 65 430" stroke="#2363F6" stroke-width="14" fill="none" stroke-linecap="round"/><text x="150" y="414" font-family="Arial" font-size="40" font-weight="700" fill="#071B45">82%</text><text x="150" y="440" class="small">Avg. Performance</text>
  <rect x="38" y="485" width="264" height="105" rx="20" fill="#FFFFFF" filter="url(#softShadow)"/><text x="60" y="520" class="label">Team Development</text><polyline points="64,566 103,552 140,563 178,535 222,525 270,498" class="blueStroke" stroke-width="5"/><text x="240" y="520" font-family="Arial" font-size="20" font-weight="700" fill="#10A66B">▲24%</text>
</g>

<g id="malePresenter" transform="translate(185 510)">
  <ellipse cx="83" cy="252" rx="70" ry="18" fill="#BED5FF" opacity=".45"/><circle cx="75" cy="42" r="30" fill="#F6B68B"/><path d="M47 40 C56 0 96 8 105 33 C87 24 73 29 61 48 Z" fill="#071B45"/>
  <rect x="42" y="75" width="75" height="130" rx="22" fill="#2363F6"/><rect x="61" y="75" width="48" height="132" fill="#FFFFFF" opacity=".98"/>
  <rect x="50" y="200" width="32" height="72" rx="13" fill="#071B45"/><rect x="90" y="200" width="32" height="72" rx="13" fill="#071B45"/>
  <path d="M110 105 C145 120 165 140 182 163" stroke="#F6B68B" stroke-width="12" stroke-linecap="round"/><rect x="52" y="118" width="57" height="60" rx="8" fill="#0C2D67"/>
</g>
<g id="analystTeam" transform="translate(830 530)">
  <ellipse cx="110" cy="230" rx="110" ry="18" fill="#BED5FF" opacity=".45"/><rect x="0" y="112" width="210" height="14" rx="7" fill="#D8E5FF"/><rect x="24" y="126" width="12" height="105" fill="#D8E5FF"/><rect x="172" y="126" width="12" height="105" fill="#D8E5FF"/>
  <circle cx="72" cy="60" r="30" fill="#F2B184"/><path d="M47 62 C42 33 65 16 91 37 C106 49 101 79 91 100 C76 82 58 81 47 62 Z" fill="#071B45"/><rect x="37" y="95" width="75" height="110" rx="25" fill="#2363F6"/>
  <rect x="72" y="185" width="28" height="70" rx="12" fill="#071B45"/><rect x="108" y="185" width="28" height="70" rx="12" fill="#071B45"/>
  <rect x="82" y="98" width="120" height="75" rx="8" fill="#FFFFFF" stroke="#D8E5FF" stroke-width="3"/><rect x="101" y="140" width="13" height="22" fill="#2363F6"/><rect x="122" y="125" width="13" height="37" fill="#6EA0FF"/><rect x="143" y="109" width="13" height="53" fill="#FF9B43"/><rect x="164" y="132" width="13" height="30" fill="#2363F6"/>
</g>
</svg>
